<svg width="14" height="14" viewBox="0 0 14 14" fill="none" xmlns="http://www.w3.org/2000/svg">
<path fill-rule="evenodd" clip-rule="evenodd" d="M6.99967 0.333313C3.31778 0.333313 0.333008 3.31808 0.333008 6.99998C0.333008 10.6819 3.31778 13.6666 6.99967 13.6666C10.6816 13.6666 13.6663 10.6819 13.6663 6.99998C13.6663 3.31808 10.6816 0.333313 6.99967 0.333313ZM7.66634 4.33331C7.66634 4.7015 7.36786 4.99998 6.99967 4.99998C6.63148 4.99998 6.33301 4.7015 6.33301 4.33331C6.33301 3.96512 6.63148 3.66665 6.99967 3.66665C7.36786 3.66665 7.66634 3.96512 7.66634 4.33331ZM6.99967 6.33331C7.36786 6.33331 7.66634 6.63179 7.66634 6.99998V10.3333C7.66634 10.7015 7.36786 11 6.99967 11C6.63148 11 6.33301 10.7015 6.33301 10.3333V6.99998C6.33301 6.63179 6.63148 6.33331 6.99967 6.33331Z" fill="#0062E1"/>
</svg>
