<svg width="16" height="20" viewBox="0 0 16 20" fill="none" xmlns="http://www.w3.org/2000/svg">
<path d="M4.5 6.5C4.22386 6.5 4 6.72386 4 7C4 7.27614 4.22386 7.5 4.5 7.5H11.5C11.7761 7.5 12 7.27614 12 7C12 6.72386 11.7761 6.5 11.5 6.5H4.5Z" fill="#0051FF"/>
<path d="M4.5 9.5C4.22386 9.5 4 9.72386 4 10C4 10.2761 4.22386 10.5 4.5 10.5H11.5C11.7761 10.5 12 10.2761 12 10C12 9.72386 11.7761 9.5 11.5 9.5H4.5Z" fill="#0051FF"/>
<path d="M4 13C4 12.7239 4.22386 12.5 4.5 12.5H11.5C11.7761 12.5 12 12.7239 12 13C12 13.2761 11.7761 13.5 11.5 13.5H4.5C4.22386 13.5 4 13.2761 4 13Z" fill="#0051FF"/>
<path fill-rule="evenodd" clip-rule="evenodd" d="M0.853553 0.146461C0.710554 0.00346223 0.495495 -0.0393156 0.308658 0.0380748C0.121821 0.115465 0 0.297783 0 0.500015V19.5C0 19.7022 0.121821 19.8846 0.308658 19.962C0.495495 20.0393 0.710554 19.9966 0.853553 19.8536L2 18.7071L3.14645 19.8536C3.34171 20.0488 3.65829 20.0488 3.85355 19.8536L5 18.7071L6.14645 19.8536C6.34171 20.0488 6.65829 20.0488 6.85355 19.8536L8 18.7071L9.14645 19.8536C9.34171 20.0488 9.65829 20.0488 9.85355 19.8536L11 18.7071L12.1464 19.8536C12.3417 20.0488 12.6583 20.0488 12.8536 19.8536L14 18.7071L15.1464 19.8536C15.2894 19.9966 15.5045 20.0393 15.6913 19.962C15.8782 19.8846 16 19.7022 16 19.5V0.500015C16 0.297783 15.8782 0.115465 15.6913 0.0380748C15.5045 -0.0393156 15.2894 0.00346223 15.1464 0.146461L14 1.29291L12.8536 0.146461C12.6583 -0.0488009 12.3417 -0.0488009 12.1464 0.146461L11 1.29291L9.85355 0.146461C9.65829 -0.0488009 9.34171 -0.0488009 9.14645 0.146461L8 1.29291L6.85355 0.146461C6.65829 -0.0488009 6.34171 -0.0488009 6.14645 0.146461L5 1.29291L3.85355 0.146461C3.65829 -0.0488009 3.34171 -0.0488009 3.14645 0.146461L2 1.29291L0.853553 0.146461ZM1.64645 17.6465L1 18.2929V1.70712L1.64645 2.35357C1.84171 2.54883 2.15829 2.54883 2.35355 2.35357L3.5 1.20712L4.64645 2.35357C4.84171 2.54883 5.15829 2.54883 5.35355 2.35357L6.5 1.20712L7.64645 2.35357C7.84171 2.54883 8.15829 2.54883 8.35355 2.35357L9.5 1.20712L10.6464 2.35357C10.8417 2.54883 11.1583 2.54883 11.3536 2.35357L12.5 1.20712L13.6464 2.35357C13.8417 2.54883 14.1583 2.54883 14.3536 2.35357L15 1.70712V18.2929L14.3536 17.6465C14.1583 17.4512 13.8417 17.4512 13.6464 17.6465L12.5 18.7929L11.3536 17.6465C11.1583 17.4512 10.8417 17.4512 10.6464 17.6465L9.5 18.7929L8.35355 17.6465C8.15829 17.4512 7.84171 17.4512 7.64645 17.6465L6.5 18.7929L5.35355 17.6465C5.15829 17.4512 4.84171 17.4512 4.64645 17.6465L3.5 18.7929L2.35355 17.6465C2.15829 17.4512 1.84171 17.4512 1.64645 17.6465Z" fill="#0051FF"/>
</svg>
