<svg width="138" height="67" viewBox="0 0 138 67" fill="none" xmlns="http://www.w3.org/2000/svg">
<mask id="mask0_48_34328" style="mask-type:alpha" maskUnits="userSpaceOnUse" x="0" y="0" width="138" height="67">
<rect x="0.5" y="0.5" width="136.206" height="65.9367" rx="11.5" fill="white" stroke="#F12222"/>
</mask>
<g mask="url(#mask0_48_34328)">
<rect x="-2.84375" y="-2.84375" width="149.292" height="73.5796" fill="white"/>
<path fill-rule="evenodd" clip-rule="evenodd" d="M55.6667 53.0109V55.4443V57.8776H54.6141V57.2868C54.2802 57.725 53.7736 58 53.085 58C51.7275 58 50.6634 56.9313 50.6634 55.4443C50.6634 53.9584 51.7275 52.8885 53.085 52.8885C53.7736 52.8885 54.2802 53.1636 54.6141 53.6018V53.0109H55.6667ZM53.216 53.8861C52.3048 53.8861 51.7472 54.5888 51.7472 55.4442C51.7472 56.2997 52.3048 57.0024 53.216 57.0024C54.0866 57.0024 54.6743 56.33 54.6743 55.4442C54.6743 54.5585 54.0866 53.8861 53.216 53.8861ZM91.2371 55.4442C91.2371 54.5888 91.7947 53.8861 92.7059 53.8861C93.5776 53.8861 94.1642 54.5585 94.1642 55.4442C94.1642 56.33 93.5776 57.0024 92.7059 57.0024C91.7947 57.0024 91.2371 56.2997 91.2371 55.4442ZM95.1577 51.0565V55.4443V57.8776H94.1039V57.2868C93.7701 57.725 93.2635 58 92.5749 58C91.2174 58 90.1532 56.9313 90.1532 55.4443C90.1532 53.9584 91.2174 52.8885 92.5749 52.8885C93.2635 52.8885 93.7701 53.1636 94.1039 53.6018V51.0565H95.1577ZM68.7326 53.836C69.4107 53.836 69.8466 54.2637 69.9579 55.0166H67.4458C67.5583 54.3138 67.9825 53.836 68.7326 53.836ZM66.3422 55.4443C66.3422 53.9269 67.3345 52.8885 68.7534 52.8885C70.1097 52.8885 71.0418 53.9269 71.0522 55.4443C71.0522 55.5864 71.0418 55.7193 71.0314 55.851H67.4365C67.5884 56.7274 68.2063 57.0432 68.8844 57.0432C69.3701 57.0432 69.8872 56.8591 70.2929 56.5339L70.8088 57.3182C70.221 57.817 69.5533 58 68.8241 58C67.3751 58 66.3422 56.9919 66.3422 55.4443ZM81.4635 55.4442C81.4635 54.5888 82.0211 53.8861 82.9322 53.8861C83.8028 53.8861 84.3906 54.5585 84.3906 55.4442C84.3906 56.33 83.8028 57.0024 82.9322 57.0024C82.0211 57.0024 81.4635 56.2997 81.4635 55.4442ZM85.3829 53.0109V55.4443V57.8776H84.3303V57.2868C83.9953 57.725 83.4899 58 82.8013 58C81.4438 58 80.3796 56.9313 80.3796 55.4443C80.3796 53.9584 81.4438 52.8885 82.8013 52.8885C83.4899 52.8885 83.9953 53.1636 84.3303 53.6018V53.0109H85.3829ZM75.5187 55.4443C75.5187 56.9208 76.5412 58 78.1016 58C78.8307 58 79.3165 57.8368 79.8428 57.4196L79.3373 56.5642C78.942 56.8497 78.527 57.0024 78.0703 57.0024C77.2298 56.9919 76.6119 56.3812 76.6119 55.4443C76.6119 54.5073 77.2298 53.8966 78.0703 53.8861C78.527 53.8861 78.942 54.0388 79.3373 54.3243L79.8428 53.4689C79.3165 53.0517 78.8307 52.8885 78.1016 52.8885C76.5412 52.8885 75.5187 53.9677 75.5187 55.4443ZM87.8137 53.6018C88.0872 53.1741 88.4825 52.8885 89.09 52.8885C89.3033 52.8885 89.607 52.9293 89.84 53.0214L89.5154 54.019C89.2929 53.9269 89.0703 53.8966 88.857 53.8966C88.1684 53.8966 87.8241 54.3441 87.8241 55.1494V57.8776H86.7703V53.0109H87.8137V53.6018ZM60.8728 53.3978C60.3662 53.0622 59.6683 52.8885 58.8986 52.8885C57.6721 52.8885 56.8826 53.4794 56.8826 54.4467C56.8826 55.2403 57.4704 55.7298 58.5531 55.8825L59.0504 55.9535C59.6277 56.0351 59.9002 56.1878 59.9002 56.4628C59.9002 56.8392 59.5153 57.0537 58.7966 57.0537C58.0674 57.0537 57.5411 56.8194 57.1864 56.5444L56.6902 57.3683C57.2675 57.796 57.9967 58 58.7861 58C60.1842 58 60.9945 57.338 60.9945 56.4115C60.9945 55.5561 60.3569 55.1086 59.3032 54.956L58.807 54.8837C58.3514 54.8231 57.9862 54.7322 57.9862 54.4059C57.9862 54.0493 58.3305 53.836 58.9078 53.836C59.5257 53.836 60.1239 54.0703 60.4172 54.2532L60.8728 53.3978ZM73.1795 53.6018C73.4519 53.1741 73.8472 52.8885 74.4546 52.8885C74.6679 52.8885 74.9717 52.9293 75.2047 53.0214L74.8801 54.019C74.6575 53.9269 74.4349 53.8966 74.2216 53.8966C73.533 53.8966 73.1887 54.3441 73.1887 55.1494V57.8776H72.1361V53.0109H73.1795V53.6018ZM65.4714 53.0109H63.7499V51.5343H62.6857V53.0109H61.7039V53.9782H62.6857V56.1983C62.6857 57.3276 63.1216 58 64.3666 58C64.8234 58 65.3497 57.8578 65.6836 57.6236L65.3798 56.7169C65.0657 56.8999 64.7214 56.9919 64.4478 56.9919C63.9215 56.9919 63.7499 56.6656 63.7499 56.1773V53.9782H65.4714V53.0109ZM49.7324 54.8231V57.8776H48.6682V55.1692C48.6682 54.3441 48.3239 53.8861 47.6052 53.8861C46.9061 53.8861 46.4204 54.3348 46.4204 55.1797V57.8776H45.3562V55.1692C45.3562 54.3441 45.0027 53.8861 44.3036 53.8861C43.5837 53.8861 43.1177 54.3348 43.1177 55.1797V57.8776H42.0547V53.0109H43.1084V53.6111C43.5038 53.0412 44.0092 52.8885 44.5262 52.8885C45.2658 52.8885 45.7921 53.2149 46.126 53.7544C46.5723 53.0715 47.2099 52.8781 47.8278 52.8885C49.0032 52.899 49.7324 53.6729 49.7324 54.8231Z" fill="#231F20"/>
<path d="M76.477 44.7413H60.5234V15.9186H76.477V44.7413Z" fill="#FF5F00"/>
<path d="M61.5358 30.3306C61.5358 24.4838 64.2589 19.2756 68.4994 15.9193C65.3984 13.4649 61.4848 12 57.2315 12C47.1623 12 39 20.2068 39 30.3306C39 40.4544 47.1623 48.6612 57.2315 48.6612C61.4848 48.6612 65.3984 47.1963 68.4994 44.742C64.2589 41.3856 61.5358 36.1774 61.5358 30.3306Z" fill="#EB001B"/>
<path d="M98.0006 30.3306C98.0006 40.4544 89.8383 48.6612 79.7691 48.6612C75.5158 48.6612 71.6022 47.1963 68.5 44.742C72.7417 41.3856 75.4648 36.1774 75.4648 30.3306C75.4648 24.4838 72.7417 19.2756 68.5 15.9193C71.6022 13.4649 75.5158 12 79.7691 12C89.8383 12 98.0006 20.2068 98.0006 30.3306Z" fill="#F79E1B"/>
</g>
</svg>
