<svg width="138" height="67" viewBox="0 0 138 67" fill="none" xmlns="http://www.w3.org/2000/svg">
<mask id="mask0_48_34352" style="mask-type:alpha" maskUnits="userSpaceOnUse" x="0" y="0" width="138" height="67">
<rect width="137.206" height="66.9367" rx="12" fill="white"/>
</mask>
<g mask="url(#mask0_48_34352)">
<rect x="-3" y="-4" width="149.292" height="73.5796" fill="white"/>
<path d="M41.7086 12.0026H59.1805C61.6195 12.0026 63.1364 14.0454 62.5674 16.5601L54.433 52.4495C53.859 54.9554 51.4171 57 48.9764 57H31.5062C29.0707 57 27.5504 54.9554 28.1194 52.4495L36.2572 16.5601C36.8261 14.0454 39.2667 12.0026 41.7086 12.0026Z" fill="#E21836"/>
<path d="M57.7251 12H77.8174C80.2559 12 79.1563 14.0429 78.5826 16.5575L70.4495 52.4469C69.8788 54.9528 70.0569 56.9975 67.6133 56.9975H47.521C45.0774 56.9975 43.5652 54.9528 44.1392 52.4469L52.272 16.5575C52.8494 14.0429 55.2849 12 57.7251 12Z" fill="#00447C"/>
<path d="M77.0212 12H94.4931C96.9354 12 98.4523 14.0429 97.8787 16.5575L89.7456 52.4469C89.1715 54.9528 86.7279 56.9975 84.286 56.9975H66.8222C64.3786 56.9975 62.8629 54.9528 63.4353 52.4469L71.5697 16.5575C72.1387 14.0429 74.5776 12 77.0212 12Z" fill="#007B84"/>
<path d="M46.2701 23.5014C44.4734 23.5202 43.9428 23.5014 43.7733 23.4602C43.7081 23.7784 42.4957 29.5258 42.4923 29.5306C42.2312 30.6934 42.0413 31.5223 41.3961 32.0575C41.0299 32.3687 40.6023 32.5188 40.1066 32.5188C39.3098 32.5188 38.8456 32.1122 38.7677 31.3411L38.7528 31.0763C38.7528 31.0763 38.9955 29.5188 38.9955 29.5101C38.9955 29.5101 40.268 24.2725 40.4958 23.5801C40.5077 23.5407 40.5112 23.5202 40.5141 23.5014C38.0373 23.5237 37.5982 23.5014 37.568 23.4602C37.5514 23.5167 37.4901 23.8414 37.4901 23.8414L36.1908 29.7446L36.0792 30.2453L35.8633 31.8829C35.8633 32.3687 35.9561 32.7652 36.1409 33.1004C36.7329 34.1634 38.4214 34.3227 39.3767 34.3227C40.6074 34.3227 41.7619 34.054 42.5421 33.5634C43.8963 32.7411 44.2507 31.4558 44.5666 30.3136L44.7131 29.7276C44.7131 29.7276 46.024 24.2878 46.2467 23.5801C46.2552 23.5407 46.2586 23.5202 46.2701 23.5014ZM50.73 27.8897C50.414 27.8897 49.8366 27.9685 49.3179 28.2297C49.1296 28.3291 48.9516 28.4437 48.7638 28.5579L48.9333 27.9291L48.8405 27.8232C47.7405 28.052 47.4943 28.0827 46.4782 28.2297L46.393 28.2879C46.2751 29.2932 46.1703 30.049 45.733 32.0249C45.5664 32.7531 45.3935 33.4883 45.2202 34.2148L45.2671 34.3071C46.3083 34.2507 46.6243 34.2507 47.5292 34.266L47.6025 34.1842C47.7175 33.5789 47.7324 33.4371 47.9871 32.2113C48.1067 31.6301 48.3563 30.3531 48.4794 29.8984C48.7055 29.7908 48.9286 29.6849 49.1416 29.6849C49.6488 29.6849 49.587 30.1396 49.5674 30.3207C49.5457 30.6249 49.3609 31.6183 49.1714 32.4713L49.0449 33.0218C48.9567 33.4284 48.8601 33.8235 48.7719 34.2266L48.8102 34.3071C49.8366 34.2507 50.1496 34.2507 51.026 34.266L51.1291 34.1842C51.2875 33.2389 51.3339 32.9859 51.615 31.6096L51.7564 30.9772C52.031 29.7396 52.169 29.112 51.9612 28.6008C51.7415 28.028 51.2142 27.8897 50.73 27.8897ZM55.7123 29.1855C55.1668 29.2931 54.8188 29.3649 54.473 29.4113C54.1302 29.4677 53.7959 29.5189 53.2687 29.5942L53.227 29.6332L53.1886 29.6642C53.1337 30.0677 53.0954 30.4165 53.0225 30.8266C52.9608 31.2507 52.8658 31.7325 52.7112 32.4248C52.5916 32.9548 52.5298 33.1395 52.4617 33.3259C52.3952 33.5123 52.322 33.6935 52.1874 34.2147L52.2189 34.2629L52.2453 34.3071C52.7381 34.283 53.0604 34.266 53.3918 34.2629C53.7227 34.2506 54.0655 34.2629 54.5961 34.266L54.6425 34.227L54.6924 34.1841C54.769 33.7141 54.7805 33.5876 54.8274 33.3583C54.8738 33.1123 54.9538 32.7719 55.1502 31.8625C55.243 31.4353 55.3465 31.0095 55.4427 30.5736C55.5428 30.1395 55.6476 29.7119 55.7472 29.2848L55.7323 29.2332L55.7123 29.1855ZM55.7239 27.4383C55.2282 27.1377 54.3582 27.2331 53.7726 27.6484C53.1888 28.0554 53.1223 28.6331 53.6163 28.9377C54.1035 29.23 54.977 29.1429 55.5574 28.7241C56.14 28.3084 56.2128 27.7359 55.7239 27.4383ZM58.7218 34.4013C59.7247 34.4013 60.7527 34.1173 61.5265 33.2744C62.1219 32.5908 62.3949 31.5738 62.4894 31.1549C62.7973 29.7668 62.5575 29.1186 62.2565 28.7239C61.7991 28.1222 60.9908 27.9292 60.1523 27.9292C59.648 27.9292 58.4471 27.9804 57.5089 28.8692C56.8352 29.5103 56.5239 30.3803 56.3361 31.2145C56.1466 32.0643 55.9285 33.5943 57.2977 34.1637C57.7202 34.3501 58.3291 34.4013 58.7218 34.4013ZM58.6434 31.2779C58.8747 30.2267 59.1476 29.3445 59.8444 29.3445C60.3903 29.3445 60.4299 30.0009 60.1872 31.0556C60.1437 31.2897 59.9444 32.1602 59.6749 32.5309C59.4866 32.8044 59.2639 32.9702 59.0178 32.9702C58.9445 32.9702 58.5089 32.9703 58.502 32.3055C58.4986 31.9773 58.5638 31.642 58.6434 31.2779ZM64.9965 34.2661L65.0748 34.1843C65.186 33.579 65.2043 33.4368 65.4504 32.2114C65.5735 31.6303 65.8282 30.3532 65.9478 29.8985C66.1744 29.7905 66.3937 29.6845 66.6135 29.6845C67.1173 29.6845 67.0559 30.1392 67.0359 30.3204C67.0176 30.625 66.8328 31.618 66.6399 32.471L66.5202 33.0215C66.4286 33.4285 66.329 33.8232 66.2408 34.2267L66.2792 34.3073C67.3089 34.2508 67.61 34.2508 68.4915 34.2661L68.598 34.1843C68.7526 33.2386 68.7943 32.9856 69.0839 31.6097L69.2219 30.9769C69.4978 29.7392 69.6375 29.1121 69.4331 28.601C69.207 28.0281 68.6763 27.8898 68.1989 27.8898C67.8825 27.8898 67.3021 27.9681 66.7864 28.2299C66.602 28.3292 66.4171 28.4434 66.2357 28.5581L66.3937 27.9292L66.309 27.8229C65.2094 28.0522 64.9581 28.0828 63.9433 28.2299L63.8654 28.2881C63.7423 29.2933 63.6422 30.0487 63.2048 32.025C63.0383 32.7532 62.8654 33.4885 62.6925 34.2149L62.739 34.3073C63.7819 34.2508 64.0932 34.2508 64.9965 34.2661ZM72.5621 34.307C72.6269 33.9823 73.0114 32.0576 73.0148 32.0576C73.0148 32.0576 73.3423 30.6454 73.3623 30.5942C73.3623 30.5942 73.4654 30.4471 73.5684 30.3889H73.7201C75.1505 30.3889 76.7658 30.3889 78.0319 29.4318C78.8934 28.7754 79.4824 27.806 79.7452 26.6279C79.8133 26.3391 79.8636 25.9955 79.8636 25.652C79.8636 25.2008 79.7754 24.7544 79.5207 24.4056C78.8751 23.4774 77.5894 23.4603 76.1053 23.4533C76.1006 23.4533 75.3737 23.4603 75.3737 23.4603C73.4739 23.4844 72.712 23.4774 72.399 23.438C72.3726 23.5802 72.3228 23.8332 72.3228 23.8332C72.3228 23.8332 71.6423 27.0743 71.6423 27.0795C71.6423 27.0795 70.0138 33.9705 69.9371 34.2952C71.5958 34.2747 72.2759 34.2747 72.5621 34.307ZM73.8231 28.5495C73.8231 28.5495 74.5467 25.315 74.5432 25.3272L74.5667 25.1614L74.5769 25.0349L74.866 25.0655C74.866 25.0655 76.3583 25.1973 76.3932 25.2008C76.9822 25.4349 77.2249 26.0384 77.0554 26.8261C76.9008 27.5461 76.4464 28.1513 75.8626 28.4436C75.3818 28.6913 74.7928 28.7119 74.1859 28.7119H73.7933L73.8231 28.5495ZM78.3281 31.3378C78.1368 32.1755 77.9171 33.7054 79.2794 34.2507C79.7138 34.4407 80.1031 34.4971 80.4987 34.4765C80.9165 34.4533 81.3036 34.238 81.6621 33.9282C81.6298 34.0555 81.5974 34.1829 81.565 34.3107L81.6268 34.3925C82.6067 34.3501 82.9108 34.3501 83.9725 34.3584L84.0687 34.2831C84.2237 33.3466 84.3698 32.4372 84.7726 30.6455C84.969 29.7873 85.1649 28.9374 85.3663 28.0827L85.3348 27.9886C84.2386 28.1974 83.9456 28.242 82.8912 28.3956L82.8111 28.4626C82.8005 28.5497 82.7894 28.6333 82.7792 28.7168C82.6152 28.4446 82.3776 28.2123 82.0109 28.0674C81.542 27.8779 80.4408 28.1221 79.4941 29.0079C78.8289 29.6403 78.5095 30.5068 78.3281 31.3378ZM80.6303 31.389C80.8649 30.3567 81.1345 29.4831 81.8329 29.4831C82.2745 29.4831 82.5071 29.902 82.4598 30.6162C82.4223 30.7943 82.3819 30.982 82.3337 31.1943C82.2639 31.5011 82.1881 31.8052 82.1144 32.1098C82.0395 32.3181 81.9522 32.5146 81.8563 32.6455C81.6766 32.9072 81.2491 33.0695 81.0029 33.0695C80.9331 33.0695 80.5021 33.0695 80.4872 32.4166C80.4838 32.0914 80.5489 31.7566 80.6303 31.389ZM92.6526 27.9803L92.5679 27.8809C91.4832 28.1067 91.2869 28.1426 90.2903 28.2809L90.2171 28.3562C90.2137 28.3684 90.2107 28.3873 90.2056 28.4043L90.2022 28.3873C89.4603 30.1461 89.4821 29.7667 88.8782 31.1514C88.8748 31.0883 88.8748 31.049 88.8714 30.982L88.7202 27.9803L88.6252 27.8809C87.489 28.1067 87.4622 28.1426 86.4129 28.2809L86.3311 28.3562C86.3196 28.3921 86.3196 28.4315 86.3128 28.4744L86.3196 28.4897C86.4508 29.1785 86.4193 29.0249 86.5508 30.112C86.6122 30.6455 86.6939 31.182 86.7553 31.7089C86.8587 32.5907 86.9167 33.0249 87.0431 34.3706C86.3345 35.5723 86.1667 36.027 85.4845 37.0817L85.4892 37.0922L85.0088 37.873C84.9539 37.9552 84.904 38.0117 84.8342 38.0358C84.7575 38.0747 84.6579 38.0817 84.5195 38.0817H84.2533L83.8577 39.434L85.2149 39.4581C86.0117 39.4546 86.5125 39.0716 86.7821 38.557L87.6355 37.0542H87.6219L87.7117 36.9482C88.2858 35.6782 92.6526 27.9803 92.6526 27.9803ZM78.328 45.7405H77.7523L79.8833 38.4972H80.5902L80.8146 37.7511L80.8363 38.5808C80.8099 39.0937 81.2026 39.5484 82.234 39.4732H83.4269L83.8374 38.0784H83.3886C83.1305 38.0784 83.0108 38.0115 83.0257 37.8679L83.004 37.0237H80.795V37.0281C80.0809 37.0434 77.9481 37.0986 77.5163 37.2167C76.9938 37.355 76.4431 37.762 76.4431 37.762L76.6595 37.015H74.5932L74.1626 38.4972L72.0031 45.8512H71.584L71.1731 47.2359H75.2886L75.1507 47.6976H77.1786L77.3132 47.2359H77.8821L78.328 45.7405ZM76.6395 39.969C76.3086 40.0631 75.6928 40.3484 75.6928 40.3484L76.2404 38.4972H77.8821L77.4861 39.846C77.4861 39.846 76.9789 39.8767 76.6395 39.969ZM76.671 42.6136C76.671 42.6136 76.1553 42.6801 75.8159 42.7589C75.4815 42.8631 74.8547 43.1913 74.8547 43.1913L75.4202 41.2648H77.0704L76.671 42.6136ZM75.7511 45.7576H74.1043L74.5817 44.1318H76.2234L75.7511 45.7576ZM79.717 41.2648H82.0908L81.7497 42.4001H79.3444L78.9833 43.6412H81.0879L79.4943 45.9471C79.3827 46.1164 79.2826 46.1764 79.1715 46.2241C79.0599 46.2823 78.9134 46.3506 78.7439 46.3506H78.1601L77.7589 47.7099H79.286C80.0798 47.7099 80.5487 47.3388 80.895 46.8517L81.9877 45.3147L82.2224 46.8753C82.2722 47.1676 82.4766 47.3388 82.615 47.4053C82.7679 47.484 82.9259 47.6193 83.149 47.6394C83.3884 47.6499 83.5613 47.6582 83.6763 47.6582H84.4266L84.8772 46.137H84.5812C84.4113 46.137 84.1187 46.1077 84.0689 46.053C84.0191 45.9865 84.0191 45.8841 83.9923 45.7283L83.7542 44.1642H82.7794L83.207 43.6412H85.6076L85.9768 42.4001H83.7542L84.1004 41.2648H86.3162L86.7271 39.8649H80.1212L79.717 41.2648ZM59.6681 46.0737L60.2222 44.1796H62.4993L62.9153 42.7709H60.6361L60.9841 41.605H63.2113L63.624 40.2409H58.0511L57.647 41.605H58.9131L58.5754 42.7709H57.3059L56.8851 44.2037H58.1508L57.4123 46.7096C57.3127 47.0413 57.4592 47.1678 57.552 47.3218C57.647 47.4719 57.7432 47.5713 57.9596 47.6277C58.1827 47.6789 58.3356 47.7096 58.5434 47.7096H61.1105L61.5679 46.149L60.43 46.3096C60.2103 46.3096 59.6017 46.2824 59.6681 46.0737ZM59.9293 37.0065L59.3523 38.0782C59.2288 38.3123 59.1176 38.4576 59.0175 38.5246C58.9294 38.5811 58.7548 38.6047 58.5018 38.6047H58.2007L57.7983 39.9758H58.7982C59.279 39.9758 59.6483 39.7946 59.8246 39.704C60.0141 39.5999 60.0639 39.6594 60.2104 39.5141L60.5481 39.2134H63.6705L64.0849 37.7859H61.7993L62.1983 37.0065H59.9293ZM64.539 46.1012C64.4858 46.0224 64.5241 45.8837 64.6055 45.5949L65.4589 42.6921H68.4949C68.9374 42.6855 69.2568 42.6802 69.4646 42.6649C69.6877 42.6408 69.9305 42.559 70.1949 42.412C70.4679 42.2579 70.6076 42.0956 70.7256 41.9091C70.8571 41.7231 71.0684 41.3161 71.2498 40.6886L72.3225 37.0151L69.172 37.0339C69.172 37.0339 68.2019 37.1809 67.7747 37.3433C67.3438 37.5245 66.728 38.0304 66.728 38.0304L67.0125 37.0234H65.0663L62.3416 46.3095C62.2449 46.6701 62.1802 46.9318 62.1653 47.089C62.1602 47.2583 62.3731 47.4259 62.5111 47.5524C62.6742 47.6789 62.9152 47.6583 63.1465 47.6789C63.3896 47.6977 63.7354 47.7095 64.2128 47.7095H65.7085L66.1675 46.1165L64.8286 46.2465C64.6855 46.2465 64.582 46.1677 64.539 46.1012ZM66.0095 40.7315H69.1984L68.9957 41.3844C68.9672 41.3997 68.899 41.352 68.5745 41.3914H65.8132L66.0095 40.7315ZM66.6483 38.5415H69.864L69.6328 39.328C69.6328 39.328 68.1171 39.3126 67.8744 39.3586C66.8063 39.5485 66.1824 40.135 66.1824 40.135L66.6483 38.5415ZM69.0671 43.5709C69.0407 43.6685 68.9989 43.7281 68.9406 43.7727C68.8759 43.8156 68.7711 43.8309 68.6148 43.8309H68.1604L68.1872 43.0357H66.2973L66.2206 46.9232C66.2176 47.2037 66.244 47.3661 66.4438 47.4961C66.6435 47.6584 67.2589 47.679 68.0872 47.679H69.2715L69.6991 46.2239L68.668 46.2821L68.3252 46.3027C68.2784 46.2821 68.2337 46.2633 68.1838 46.2121C68.1404 46.1679 68.0671 46.195 68.0791 45.9145L68.0872 44.918L69.1684 44.872C69.7523 44.872 70.0018 44.6768 70.2148 44.4909C70.4179 44.3127 70.4843 44.1079 70.561 43.8309L70.7424 42.9486H69.2566L69.0671 43.5709Z" fill="#FEFEFE"/>
</g>
</svg>
