<svg width="138" height="67" viewBox="0 0 138 67" fill="none" xmlns="http://www.w3.org/2000/svg">
<mask id="mask0_48_34336" style="mask-type:alpha" maskUnits="userSpaceOnUse" x="0" y="0" width="138" height="67">
<rect width="137.206" height="66.9367" rx="12" fill="white"/>
</mask>
<g mask="url(#mask0_48_34336)">
<rect x="-3" y="-2.84375" width="149.292" height="73.5796" fill="white"/>
<path fill-rule="evenodd" clip-rule="evenodd" d="M44.2511 50.3161H36.2025L30.167 26.6132C29.8805 25.5229 29.2723 24.559 28.3776 24.1047C26.1447 22.963 23.6842 22.0544 21 21.5961V20.6835H33.9657C35.7551 20.6835 37.0972 22.0544 37.3209 23.6464L40.4524 40.7441L48.4971 20.6835H56.322L44.2511 50.3161ZM60.7964 50.3161H53.1952L59.4543 20.6835H67.0555L60.7964 50.3161ZM76.8871 28.8925C77.1108 27.2965 78.4529 26.384 80.0187 26.384C82.4792 26.1548 85.1594 26.6131 87.3962 27.7508L88.7383 21.3708C86.5015 20.4583 84.041 20 81.8081 20C74.4306 20 69.0622 24.1045 69.0622 29.8011C69.0622 34.1348 72.8648 36.4103 75.549 37.7811C78.4529 39.148 79.5713 40.0605 79.3476 41.4274C79.3476 43.4777 77.1108 44.3903 74.8779 44.3903C72.1938 44.3903 69.5096 43.7068 67.053 42.5651L65.7109 48.9491C68.3951 50.0869 71.299 50.5451 73.9832 50.5451C82.2555 50.7703 87.3962 46.6697 87.3962 40.5148C87.3962 32.764 76.8871 32.3097 76.8871 28.8925ZM114.002 50.3161L107.966 20.6836H101.484C100.141 20.6836 98.7994 21.5962 98.352 22.963L87.1758 50.3161H95.0007L96.5625 45.9864H106.177L107.072 50.3161H114.002ZM102.6 28.6641L104.833 39.8321H98.5742L102.6 28.6641Z" fill="#172B85"/>
</g>
</svg>
